<mxfile host="app.diagrams.net" modified="2023-05-07T17:08:51.582Z" agent="Mozilla/5.0 (Windows NT 10.0; Win64; x64) AppleWebKit/537.36 (KHTML, like Gecko) Chrome/113.0.0.0 Safari/537.36 Edg/113.0.1774.35" etag="F9J0YtGWkPv3foLcmTrO" version="21.2.7" type="device">
  <diagram id="R2lEEEUBdFMjLlhIrx00" name="Page-1">
    <mxGraphModel dx="1730" dy="484" grid="1" gridSize="10" guides="1" tooltips="1" connect="1" arrows="1" fold="1" page="1" pageScale="1" pageWidth="850" pageHeight="1100" math="0" shadow="0" extFonts="Permanent Marker^https://fonts.googleapis.com/css?family=Permanent+Marker">
      <root>
        <mxCell id="0" />
        <mxCell id="1" parent="0" />
        <mxCell id="KdSPLnOMvFJOds_jZwWV-4" style="edgeStyle=orthogonalEdgeStyle;rounded=0;orthogonalLoop=1;jettySize=auto;html=1;entryX=0;entryY=0.5;entryDx=0;entryDy=0;" edge="1" parent="1" source="KdSPLnOMvFJOds_jZwWV-2" target="KdSPLnOMvFJOds_jZwWV-3">
          <mxGeometry relative="1" as="geometry" />
        </mxCell>
        <mxCell id="KdSPLnOMvFJOds_jZwWV-8" value="" style="edgeStyle=orthogonalEdgeStyle;rounded=0;orthogonalLoop=1;jettySize=auto;html=1;" edge="1" parent="1" source="KdSPLnOMvFJOds_jZwWV-2" target="KdSPLnOMvFJOds_jZwWV-7">
          <mxGeometry relative="1" as="geometry" />
        </mxCell>
        <mxCell id="KdSPLnOMvFJOds_jZwWV-10" value="" style="edgeStyle=orthogonalEdgeStyle;rounded=0;orthogonalLoop=1;jettySize=auto;html=1;" edge="1" parent="1" source="KdSPLnOMvFJOds_jZwWV-2" target="KdSPLnOMvFJOds_jZwWV-9">
          <mxGeometry relative="1" as="geometry" />
        </mxCell>
        <mxCell id="KdSPLnOMvFJOds_jZwWV-12" value="" style="edgeStyle=orthogonalEdgeStyle;rounded=0;orthogonalLoop=1;jettySize=auto;html=1;" edge="1" parent="1" source="KdSPLnOMvFJOds_jZwWV-2" target="KdSPLnOMvFJOds_jZwWV-11">
          <mxGeometry relative="1" as="geometry" />
        </mxCell>
        <mxCell id="KdSPLnOMvFJOds_jZwWV-2" value="User" style="rounded=0;whiteSpace=wrap;html=1;" vertex="1" parent="1">
          <mxGeometry x="160" y="240" width="120" height="60" as="geometry" />
        </mxCell>
        <mxCell id="KdSPLnOMvFJOds_jZwWV-20" value="" style="edgeStyle=orthogonalEdgeStyle;rounded=0;orthogonalLoop=1;jettySize=auto;html=1;" edge="1" parent="1" source="KdSPLnOMvFJOds_jZwWV-3" target="KdSPLnOMvFJOds_jZwWV-19">
          <mxGeometry relative="1" as="geometry" />
        </mxCell>
        <mxCell id="KdSPLnOMvFJOds_jZwWV-22" value="" style="edgeStyle=orthogonalEdgeStyle;rounded=0;orthogonalLoop=1;jettySize=auto;html=1;" edge="1" parent="1" source="KdSPLnOMvFJOds_jZwWV-3" target="KdSPLnOMvFJOds_jZwWV-21">
          <mxGeometry relative="1" as="geometry">
            <Array as="points">
              <mxPoint x="630" y="270" />
            </Array>
          </mxGeometry>
        </mxCell>
        <mxCell id="KdSPLnOMvFJOds_jZwWV-24" value="" style="edgeStyle=orthogonalEdgeStyle;rounded=0;orthogonalLoop=1;jettySize=auto;html=1;" edge="1" parent="1" source="KdSPLnOMvFJOds_jZwWV-3" target="KdSPLnOMvFJOds_jZwWV-23">
          <mxGeometry relative="1" as="geometry" />
        </mxCell>
        <mxCell id="KdSPLnOMvFJOds_jZwWV-25" value="" style="edgeStyle=orthogonalEdgeStyle;rounded=0;orthogonalLoop=1;jettySize=auto;html=1;" edge="1" parent="1" source="KdSPLnOMvFJOds_jZwWV-3" target="KdSPLnOMvFJOds_jZwWV-23">
          <mxGeometry relative="1" as="geometry" />
        </mxCell>
        <mxCell id="KdSPLnOMvFJOds_jZwWV-27" value="" style="edgeStyle=orthogonalEdgeStyle;rounded=0;orthogonalLoop=1;jettySize=auto;html=1;" edge="1" parent="1" source="KdSPLnOMvFJOds_jZwWV-3" target="KdSPLnOMvFJOds_jZwWV-26">
          <mxGeometry relative="1" as="geometry" />
        </mxCell>
        <mxCell id="KdSPLnOMvFJOds_jZwWV-3" value="Resep" style="rounded=0;whiteSpace=wrap;html=1;" vertex="1" parent="1">
          <mxGeometry x="480" y="240" width="120" height="60" as="geometry" />
        </mxCell>
        <mxCell id="KdSPLnOMvFJOds_jZwWV-6" style="edgeStyle=orthogonalEdgeStyle;rounded=0;orthogonalLoop=1;jettySize=auto;html=1;entryX=0.5;entryY=1;entryDx=0;entryDy=0;" edge="1" parent="1" source="KdSPLnOMvFJOds_jZwWV-5" target="KdSPLnOMvFJOds_jZwWV-3">
          <mxGeometry relative="1" as="geometry" />
        </mxCell>
        <mxCell id="KdSPLnOMvFJOds_jZwWV-14" value="" style="edgeStyle=orthogonalEdgeStyle;rounded=0;orthogonalLoop=1;jettySize=auto;html=1;" edge="1" parent="1" source="KdSPLnOMvFJOds_jZwWV-5" target="KdSPLnOMvFJOds_jZwWV-13">
          <mxGeometry relative="1" as="geometry" />
        </mxCell>
        <mxCell id="KdSPLnOMvFJOds_jZwWV-16" value="" style="edgeStyle=orthogonalEdgeStyle;rounded=0;orthogonalLoop=1;jettySize=auto;html=1;" edge="1" parent="1" source="KdSPLnOMvFJOds_jZwWV-5" target="KdSPLnOMvFJOds_jZwWV-15">
          <mxGeometry relative="1" as="geometry" />
        </mxCell>
        <mxCell id="KdSPLnOMvFJOds_jZwWV-18" value="" style="edgeStyle=orthogonalEdgeStyle;rounded=0;orthogonalLoop=1;jettySize=auto;html=1;" edge="1" parent="1" source="KdSPLnOMvFJOds_jZwWV-5" target="KdSPLnOMvFJOds_jZwWV-17">
          <mxGeometry relative="1" as="geometry" />
        </mxCell>
        <mxCell id="KdSPLnOMvFJOds_jZwWV-5" value="Bahan" style="rounded=0;whiteSpace=wrap;html=1;" vertex="1" parent="1">
          <mxGeometry x="480" y="440" width="120" height="60" as="geometry" />
        </mxCell>
        <mxCell id="KdSPLnOMvFJOds_jZwWV-7" value="Password" style="ellipse;whiteSpace=wrap;html=1;rounded=0;" vertex="1" parent="1">
          <mxGeometry x="70" y="140" width="80" height="80" as="geometry" />
        </mxCell>
        <mxCell id="KdSPLnOMvFJOds_jZwWV-9" value="Id" style="ellipse;whiteSpace=wrap;html=1;rounded=0;" vertex="1" parent="1">
          <mxGeometry x="180" y="90" width="80" height="80" as="geometry" />
        </mxCell>
        <mxCell id="KdSPLnOMvFJOds_jZwWV-11" value="Username" style="ellipse;whiteSpace=wrap;html=1;rounded=0;" vertex="1" parent="1">
          <mxGeometry x="-20" y="230" width="80" height="80" as="geometry" />
        </mxCell>
        <mxCell id="KdSPLnOMvFJOds_jZwWV-13" value="nama bahan" style="ellipse;whiteSpace=wrap;html=1;rounded=0;" vertex="1" parent="1">
          <mxGeometry x="500" y="540" width="80" height="80" as="geometry" />
        </mxCell>
        <mxCell id="KdSPLnOMvFJOds_jZwWV-15" value="Foto" style="ellipse;whiteSpace=wrap;html=1;rounded=0;" vertex="1" parent="1">
          <mxGeometry x="345" y="430" width="80" height="80" as="geometry" />
        </mxCell>
        <mxCell id="KdSPLnOMvFJOds_jZwWV-17" value="Id Bahan" style="ellipse;whiteSpace=wrap;html=1;rounded=0;" vertex="1" parent="1">
          <mxGeometry x="670" y="430" width="80" height="80" as="geometry" />
        </mxCell>
        <mxCell id="KdSPLnOMvFJOds_jZwWV-19" value="bahan" style="ellipse;whiteSpace=wrap;html=1;rounded=0;" vertex="1" parent="1">
          <mxGeometry x="500" y="90" width="80" height="80" as="geometry" />
        </mxCell>
        <mxCell id="KdSPLnOMvFJOds_jZwWV-21" value="Langkah-langkah" style="ellipse;whiteSpace=wrap;html=1;rounded=0;" vertex="1" parent="1">
          <mxGeometry x="590" y="140" width="80" height="80" as="geometry" />
        </mxCell>
        <mxCell id="KdSPLnOMvFJOds_jZwWV-23" value="nama resep" style="ellipse;whiteSpace=wrap;html=1;rounded=0;" vertex="1" parent="1">
          <mxGeometry x="680" y="230" width="80" height="80" as="geometry" />
        </mxCell>
        <mxCell id="KdSPLnOMvFJOds_jZwWV-26" value="Rating" style="ellipse;whiteSpace=wrap;html=1;rounded=0;" vertex="1" parent="1">
          <mxGeometry x="620" y="320" width="80" height="80" as="geometry" />
        </mxCell>
      </root>
    </mxGraphModel>
  </diagram>
</mxfile>
